<?xml version="1.0" encoding="UTF-8"?>
<svg id="Layer_1" data-name="Layer 1" xmlns="http://www.w3.org/2000/svg" viewBox="0 0 293.42 378.67">
  <defs>
    <style>
      .cls-1 {
        fill-rule: evenodd;
      }

      .cls-1, .cls-2 {
        fill: #f87248;
        stroke-width: 0px;
      }
    </style>
  </defs>
  <path class="cls-2" d="M88.52,152.44c3.83-28.5,28.41-50.49,58.18-50.49,32.42,0,58.69,26.08,58.69,58.26,0,17.07-7.4,32.43-19.19,43.09-2.65,2.39-3.03,6.53-.66,9.19,5.71,6.39,10.91,13.25,15.51,20.52,1.86,2.94,5.87,3.8,8.55,1.57,21.35-17.81,34.92-44.51,34.92-74.36,0-53.62-43.8-97.09-97.82-97.09s-94.61,40.36-97.65,91.27c-.19,3.21,2.45,5.83,5.7,5.83h13.7c3.98,0,6.04,0,11.82.44,5.79.43,7.22-.44,8.26-8.2Z"/>
  <path class="cls-1" d="M48.87,185.45c0-3.22,2.63-5.83,5.87-5.83h13.7c73.67,0,133.75,57.73,136.83,130.1.14,3.21-2.5,5.83-5.75,5.83h-27.39c-3.24,0-5.85-2.61-6.04-5.83-3.04-50.91-45.59-91.27-97.65-91.27h-13.7c-3.24,0-5.87-2.61-5.87-5.83v-27.19Z"/>
</svg>